<?xml version="1.0" standalone="no"?>
<!DOCTYPE svg PUBLIC "-//W3C//DTD SVG 20010904//EN"
 "http://www.w3.org/TR/2001/REC-SVG-20010904/DTD/svg10.dtd">
<svg version="1.0" xmlns="http://www.w3.org/2000/svg"
 width="1280.000000pt" height="1021.000000pt" viewBox="0 0 1280.000000 1021.000000"
 preserveAspectRatio="xMidYMid meet">
<metadata>
Created by potrace 1.15, written by Peter Selinger 2001-2017
</metadata>
<g transform="translate(0.000000,1021.000000) scale(0.100000,-0.100000)"
fill="#000000" stroke="none">
<path d="M5410 10204 c-974 -70 -1810 -544 -2336 -1324 -93 -138 -159 -255
-245 -436 -322 -676 -532 -1354 -733 -2368 -26 -126 -46 -231 -46 -232 0 -2
-429 -5 -952 -6 -1014 -3 -983 -2 -1037 -51 -33 -31 -61 -95 -61 -143 0 -93
-46 -44 1646 -1729 997 -993 1610 -1596 1633 -1607 48 -23 135 -23 186 1 28
13 528 508 1641 1622 1753 1756 1645 1640 1630 1745 -9 65 -39 109 -93 135
l-47 23 -944 -3 -945 -3 7 168 c15 373 69 681 172 991 336 1005 1045 1607
2029 1724 139 17 525 17 670 0 641 -72 1278 -277 2028 -652 239 -119 259 -126
323 -110 67 17 103 46 130 105 40 86 25 164 -43 228 -23 22 -1803 1055 -2219
1289 -611 342 -1178 538 -1779 614 -117 15 -505 27 -615 19z"/>
<path d="M9335 7901 c-28 -13 -528 -508 -1641 -1622 -1753 -1756 -1645 -1640
-1630 -1745 9 -65 39 -109 93 -135 l47 -23 944 3 945 3 -7 -168 c-15 -373 -69
-681 -172 -991 -336 -1005 -1045 -1607 -2029 -1724 -139 -17 -525 -17 -670 0
-646 73 -1267 273 -2044 659 -191 95 -221 107 -266 107 -70 -1 -123 -30 -159
-88 -54 -88 -43 -179 31 -249 23 -22 1803 -1055 2219 -1289 613 -343 1172
-536 1784 -615 186 -24 612 -24 795 0 727 95 1356 408 1835 913 232 245 402
495 561 829 322 676 532 1354 733 2368 26 126 46 231 46 232 0 2 429 5 953 6
1013 3 982 2 1036 51 33 31 61 95 61 143 0 92 45 45 -1646 1729 -996 992
-1610 1596 -1633 1607 -48 23 -135 23 -186 -1z"/>
</g>
</svg>
